# xmcd CD database file
#
# Track frame offsets:
#	150
#	20562
#	45457
#	68810
#	90297
#	113285
#	141440
#	163762
#	183275
#	203657
#	255882
#	271987
#
# Disc length: 3861 seconds
#
# Revision: 0
# Processed by: cddbd v1.5.1PL2 Copyright (c) Steve Scherf et al.
# Submitted via: CDex 1.51
#
DISCID=930f130c
DTITLE=Zipflo Weinrich - Black and White
DYEAR=1993
DGENRE=Jazz
TTITLE0=Black and White
TTITLE1=The Touch of your Lips
TTITLE2=Don Diego Zipflo
TTITLE3=What Am I Here ....
TTITLE4=Just Lovers
TTITLE5=M.S.
TTITLE6=Melody
TTITLE7=Querkopf
TTITLE8=Dadeski
TTITLE9=Autumn Leaves
TTITLE10=Medley: Wonderfull...,Over the Rainbown ...,
TTITLE11=Tokoto
EXTD=YEAR: 1993
EXTT0=
EXTT1=
EXTT2=
EXTT3=
EXTT4=
EXTT5=
EXTT6=
EXTT7=
EXTT8=
EXTT9=
EXTT10=
EXTT11=
PLAYORDER=
